<?xml version="1.0" encoding="UTF-8"?>
<!DOCTYPE svg PUBLIC "-//W3C//DTD SVG 1.0//EN" "http://www.w3.org/TR/2001/REC-SVG-20010904/DTD/svg10.dtd">
<!-- Creator: CorelDRAW X7 -->
<svg xmlns="http://www.w3.org/2000/svg" xml:space="preserve" width="456.37mm" height="366.95mm" version="1.0" style="shape-rendering:geometricPrecision; text-rendering:geometricPrecision; image-rendering:optimizeQuality; fill-rule:evenodd; clip-rule:evenodd"
viewBox="0 0 456 367"
 xmlns:xlink="http://www.w3.org/1999/xlink">
 <defs>
  <style type="text/css">
   <![CDATA[
    .fil2 {fill:black}
    .fil0 {fill:black}
    .fil3 {fill:#2DB4EA}
    .fil1 {fill:black;fill-rule:nonzero}
   ]]>
  </style>
 </defs>
 <g id="Capa_x0020_1">
  <metadata id="CorelCorpID_0Corel-Layer"/>
  <g id="_362288376">
   <g>
    <path class="fil0" d="M183 280l-1 -7 0 0 14 59 0 0 0 1 1 0 0 0 0 1 0 0 0 1 1 0 0 0 0 1 1 0 0 0 0 0 1 1 0 0 0 0 1 0 0 0 0 0 1 1 0 0 1 0 0 0 1 0 0 0 1 0 0 0 40 -5 0 1 -1 2 -1 2 -1 2 -1 2 -1 1 -2 2 -1 2 -2 2 -1 2 -2 1 -2 2 -2 1 -2 2 -2 1 -2 1 -2 2 -2 1 -2 1 -2 1 -3 0 -2 1 -2 1 -2 0 91 -16 2 0 2 -1 2 0 2 -1 1 -1 2 -1 2 -1 2 0 1 -1 2 -2 1 -1 2 -1 1 -1 2 -1 1 -2 1 -1 1 -2 1 -1 2 -2 0 -1 1 -2 1 -1 1 -2 1 -2 0 -2 1 -1 0 -2 1 -2 0 -1 0 -2 0 -2 0 -2 0 -2 0 -1 0 -2 -1 -2 -3 -12 10 0 19 -7 -2 -8 22 0 19 -7 -4 -15 34 4 18 -7 -6 -28 2 -56 -25 -14 0 -4 4 3 37 -15 -2 -12 -24 -18 18 -7 -3 -12 -15 -13 11 -4 -3 -12 -57 -57 4 15 -23 9 5 22 14 11 -11 4 3 11 -62 -45 10 41 -44 -28 2 37 -42 -22 18 47 -60 -26 1 1 2 0 1 1 1 1 1 0 1 1 1 1 1 1 1 1 1 1 1 2 0 1 1 1 1 1 0 2 1 1 0 2 3 12 -31 -12 0 0 0 0 -1 0 0 0 0 0 0 0 -1 0 0 -1 0 1 -1 0 0 0 0 0 -1 0 0 0 0 0 0 0 -1 0 0 0 0 1 -1 0 0 0 0 0 0 0 -1 1 0 0 0 0 0 0 -1 1 0 0 0 0 0 0 0 1 0 0 0 0 -1 0 0 1 0 0 0 0 0 1 0 0 0 0 0 1 0 0 0 0 0 1 0 0 0 0 3 11 -48 -17 12 50 -34 -9 1 3 -55 -14 18 44 -34 -6 27 114 -29 11 126 0 23 -9zm198 -75l8 35 0 0 -9 -39 1 -1 0 5zm2 -39l-25 -10 0 -3 24 11 1 -1 0 3zm-74 14l0 -1 1 -1 0 -1 0 -1 0 -2 0 -1 9 3 -10 4zm79 -76l-2 -6 7 4 -5 2zm-108 177l-4 -14 1 0 3 14 0 0zm32 -85l-10 -3 1 0 1 -1 0 -1 1 -1 1 -1 0 -2 1 -1 0 -1 1 -1 0 -1 1 -1 0 -1 3 15zm-47 23l-10 -2 -5 -21 10 2 5 21zm-16 -28l10 2 -10 -2zm-75 -115l0 0zm59 166l-11 -1 0 -10 9 1 0 1 1 2 1 7z"/>
    <path id="1" class="fil1" d="M259 194l-10 -2 0 -2 11 3 -1 1z"/>
    <path id="2" class="fil2" d="M183 280l-1 -7 0 0 14 59 0 0 0 1 1 0 0 0 0 1 0 0 0 1 1 0 0 0 0 1 1 0 0 0 0 0 1 1 0 0 0 0 1 0 0 0 0 0 1 1 0 0 1 0 0 0 1 0 0 0 1 0 0 0 40 -5 0 1 -1 2 -1 2 -1 2 -1 2 -1 1 -2 2 -1 2 -2 2 -1 2 -2 1 -2 2 -2 1 -2 2 -2 1 -2 1 -2 2 -2 1 -2 1 -2 1 -3 0 -2 1 -2 1 -2 0 91 -16 2 0 2 -1 2 0 2 -1 1 -1 2 -1 2 -1 2 0 1 -1 2 -2 1 -1 2 -1 1 -1 2 -1 1 -2 1 -1 1 -2 1 -1 2 -2 0 -1 1 -2 1 -1 1 -2 1 -2 0 -2 1 -1 0 -2 1 -2 0 -1 0 -2 0 -2 0 -2 0 -2 0 -1 0 -2 -1 -2 -3 -12 10 0 19 -7 -2 -8 22 0 19 -7 -4 -15 34 4 18 -7 -6 -28 2 -56 -25 -14 0 -4 4 3 37 -15 -2 -12 -24 -18 18 -7 -3 -12 -15 -13 11 -4 -3 -12 -57 -57 4 15 -23 9 5 22 14 11 -11 4 3 11 -62 -45 10 41 -44 -28 2 37 -42 -22 18 47 -60 -26 1 1 2 0 1 1 1 1 1 0 1 1 1 1 1 1 1 1 1 1 1 2 0 1 1 1 1 1 0 2 1 1 0 2 3 12 -31 -12 0 0 0 0 -1 0 0 0 0 0 0 0 -1 0 0 -1 0 1 -1 0 0 0 0 0 -1 0 0 0 0 0 0 0 -1 0 0 0 0 1 -1 0 0 0 0 0 0 0 -1 1 0 0 0 0 0 0 -1 1 0 0 0 0 0 0 0 1 0 0 0 0 -1 0 0 1 0 0 0 0 0 1 0 0 0 0 0 1 0 0 0 0 0 1 0 0 0 0 3 11 -48 -17 12 50 -34 -9 1 3 -55 -14 18 44 -34 -6 27 114 -29 11 126 0 23 -9zm198 -75l8 35 0 0 -9 -39 1 -1 0 5zm2 -39l-25 -10 0 -3 24 11 1 -1 0 3zm-74 14l0 -1 1 -1 0 -1 0 -1 0 -2 0 -1 9 3 -10 4zm79 -76l-2 -6 7 4 -5 2zm-108 177l-4 -14 1 0 3 14 0 0zm32 -85l-10 -3 1 0 1 -1 0 -1 1 -1 1 -1 0 -2 1 -1 0 -1 1 -1 0 -1 1 -1 0 -1 3 15zm-47 23l-10 -2 -5 -21 10 2 5 21zm-32 23l-11 -1 0 -10 9 1 0 1 1 2 1 7zm-39 90l-12 -50 -21 8 -1 0 -126 1 0 -3 27 -11 -27 -113 2 -2 31 6 -17 -42 2 -2 53 14 0 -1 2 -2 31 8 -11 -46 2 -2 44 16 -2 -8 0 0 0 -1 0 0 0 0 0 0 0 -1 0 0 0 0 0 0 0 0 0 0 0 -1 0 0 0 0 0 0 0 -1 0 0 0 0 0 0 1 0 0 0 0 -1 0 0 0 0 0 0 0 0 0 -1 0 0 0 0 0 0 0 0 0 -1 0 0 1 0 0 0 0 0 0 0 0 -1 0 0 0 0 0 0 1 0 0 0 0 0 0 0 0 -1 0 0 0 0 0 0 1 0 0 0 0 -1 0 0 0 0 0 0 1 0 0 0 0 0 0 0 0 0 0 0 1 -1 0 0 0 0 0 0 1 0 0 0 0 0 0 0 0 0 0 0 1 0 0 0 0 0 0 0 1 0 0 0 0 0 0 0 0 0 0 0 1 0 0 0 0 0 0 0 0 0 1 0 0 0 0 0 0 0 0 0 1 0 0 0 0 0 0 0 27 11 -2 -9 0 0 0 -1 -1 -2 0 -1 0 0 -1 -1 0 -1 -1 -1 -1 -1 0 -2 -1 -1 -1 0 0 0 -1 -1 0 0 -1 -1 -1 -1 0 0 -1 -1 0 0 -1 0 -1 -1 -2 0 2 -4 0 0 0 0 0 0 55 25 -15 -44 2 -2 39 21 -2 -34 3 -2 40 26 -8 -37 2 -2 58 43 -1 -7 1 -2 7 -3 -11 -9 -1 -1 -5 -22 1 -2 22 -8 -3 -14 2 -1 57 57 0 1 3 12 -1 2 -8 3 13 11 0 1 3 12 -1 2 -15 6 22 16 0 1 3 12 -1 2 -37 14 -2 0 -2 -1 0 0 25 13 1 2 -3 56 7 27 -1 2 -19 7 -1 1 -31 -4 3 13 -1 2 -18 7 -1 0 -20 -1 2 7 -1 2 -19 7 -1 0 -7 0 2 10 0 0 0 1 0 1 1 1 0 0 0 2 0 0 0 2 0 0 0 2 0 0 0 2 0 0 0 2 0 0 -1 2 0 0 0 1 0 0 -1 2 0 0 0 2 0 0 -1 2 0 0 0 2 0 0 -1 1 0 0 -1 2 0 0 -1 2 0 0 -1 1 0 0 -1 2 0 0 -1 1 0 0 -1 2 -1 0 -1 1 0 0 -1 2 0 0 -2 1 0 0 -1 1 0 0 -2 2 0 0 -1 1 0 0 -2 1 0 0 -1 1 0 0 -2 1 0 0 -2 1 0 0 -2 1 0 0 -2 1 0 0 -2 0 0 0 -1 1 -1 0 -1 0 0 0 -2 1 0 0 -92 16 -1 -4 2 0 0 0 3 -1 0 0 2 0 0 0 2 -1 0 0 2 -1 0 0 2 -1 0 0 2 -1 0 0 2 -1 0 0 2 -1 0 0 2 -2 0 0 2 -1 0 0 2 -2 2 -1 0 0 1 -2 0 0 2 -1 0 0 1 -2 0 0 2 -2 1 -2 0 0 1 -1 2 -2 0 0 1 -2 1 -2 -38 4 0 0 0 0 0 0 -1 0 0 0 0 0 0 0 -1 0 0 0 0 0 -1 0 0 0 0 0 0 0 -1 0 0 0 0 0 0 0 -1 0 0 0 0 0 0 0 -1 0 0 -1 0 0 0 0 0 0 -1 0 0 0 0 -1 0 0 -1 0 0 0 0 0 0 0 0 -1 0 0 -1 0 0 0 0 0 0 0 0 -1 0 0 -1 0 0 0 0 -1 0 0 0 0 0 0 0 -1 0 0 0 0 0 0 -1 -1 0 0zm118 -156l0 1 1 -1 -1 0 0 0zm77 -74l0 0 0 0 0 0zm-84 90l5 1 -1 -6 -1 0 0 0 0 1 0 0 -1 1 0 0 -1 2 0 0 0 1 0 0 -1 0zm-49 24l7 1 -4 -17 -7 -2 4 18zm-32 23l7 1 -1 -4 0 0 -1 -2 0 0 -5 -1 0 6z"/>
   </g>
   <g>
    <path class="fil3" d="M128 96l-18 8 -11 3 -18 8 5 96 -34 -85 -23 8 -10 4 -19 7 34 144 29 -11 -27 -114 47 107 4 -2 23 -8 4 -2 -8 -122 28 115 9 -4c-2,7 -2,14 0,21l16 70c6,23 30,34 55,25l0 0c24,-10 40,-35 34,-59l-4 -18 -35 13 5 25c2,5 -2,10 -7,12l0 0c-5,2 -10,0 -11,-5l-19 -82c-1,-5 2,-10 7,-12l0 0c5,-2 10,0 11,5l5 20 35 -13 -3 -15c-6,-23 -30,-33 -55,-24l0 0c-7,3 -13,7 -19,12l-30 -127zm195 62l35 57 8 33 23 -8 -8 -35 3 -70 -21 8 -1 39 -18 -32 -21 8zm-56 22l53 -21 4 15 -15 6 19 83 -23 9 -19 -83 -16 6 -3 -15zm-33 12l23 -9 23 98 -23 9 -23 -98zm128 -168l23 -9 -4 -15 -46 18 23 98 47 -18 -4 -15 -23 9 -8 -31 24 -9 -4 -15 -23 9 -5 -22zm-148 40l23 -9 25 68 -9 -74 24 -9 6 104 -6 3 -18 6 -6 3 -39 -92zm74 -28l23 -9 24 98 -24 8 -23 -97zm-114 40l0 0c16,-6 32,2 36,18l11 45c4,16 -7,34 -23,40l0 0c-16,7 -32,-1 -36,-17l-11 -46c-4,-16 6,-34 23,-40zm4 18l0 0c3,-1 7,0 7,4l14 55c0,3 -2,7 -5,8l0 0c-3,2 -7,0 -8,-3l-13 -56c-1,-3 2,-7 5,-8z"/>
    <path id="1" class="fil2" d="M128 96l-18 8 -11 3 -18 8 5 96 -34 -85 -23 8 -10 4 -19 7 34 144 29 -11 -27 -114 47 107 4 -2 23 -8 4 -2 -8 -122 28 115 9 -4c-2,7 -2,14 0,21l16 70c6,23 30,34 55,25l0 0c24,-10 40,-35 34,-59l-4 -18 -35 13 5 25c2,5 -2,10 -7,12l0 0c-5,2 -10,0 -11,-5l-19 -82c-1,-5 2,-10 7,-12l0 0c5,-2 10,0 11,5l5 20 35 -13 -3 -15c-6,-23 -30,-33 -55,-24l0 0c-7,3 -13,7 -19,12l-30 -127zm195 62l35 57 8 33 23 -8 -8 -35 3 -70 -21 8 -1 39 -18 -32 -21 8zm-56 22l53 -21 4 15 -15 6 19 83 -23 9 -19 -83 -16 6 -3 -15zm-33 12l23 -9 23 98 -23 9 -23 -98zm128 -168l23 -9 -4 -15 -46 18 23 98 47 -18 -4 -15 -23 9 -8 -31 24 -9 -4 -15 -23 9 -5 -22zm-148 40l23 -9 25 68 -9 -74 24 -9 6 104 -6 3 -18 6 -6 3 -39 -92zm74 -28l23 -9 24 98 -24 8 -23 -97zm-114 40l0 0c16,-6 32,2 36,18l11 45c4,16 -7,34 -23,40l0 0c-16,7 -32,-1 -36,-17l-11 -46c-4,-16 6,-34 23,-40zm4 18l0 0c3,-1 7,0 7,4l14 55c0,3 -2,7 -5,8l0 0c-3,2 -7,0 -8,-3l-13 -56c-1,-3 2,-7 5,-8zm-69 8l19 -7 1 -1 1 2 29 124c3,-2 5,-4 7,-5 4,-2 7,-4 11,-5 2,-1 4,-2 7,-3 10,-2 20,-1 29,3 8,4 15,10 19,20 0,1 1,3 1,5l4 14 0 2 -1 0 -36 14 -2 0 0 -2 -5 -20c0,0 0,0 0,0 -1,-2 -2,-3 -3,-4 -1,0 -3,0 -5,0 0,0 0,0 -1,0 -2,1 -4,3 -5,5 -1,1 -1,4 -1,6l20 81c0,1 0,1 0,1 1,2 2,3 3,3 1,1 3,1 5,1 0,0 0,0 1,-1 2,0 4,-2 5,-4 1,-2 1,-4 1,-6l-6 -24 0 -2 1 0 35 -14 2 0 1 1 4 19c3,12 0,24 -6,35 -7,11 -17,20 -30,25 -2,1 -4,2 -7,2 -10,3 -20,2 -29,-2 -8,-4 -15,-11 -19,-21 0,-1 -1,-3 -1,-5l-17 -69c-1,-4 -1,-8 -1,-11 0,-3 0,-6 1,-8l-7 2 -2 1 0 -2 -23 -95 6 102 0 1 -1 1 -3 1 -24 9 -3 1 -2 1 0 -1 -40 -90 23 96 0 2 -1 0 -29 11 -2 1 0 -2 -35 -144 0 -2 1 0 19 -7 10 -4 23 -9 2 -1 0 2 31 75 -5 -85 0 -2 1 0 19 -7 10 -4zm247 113l-34 -56 4 15 0 1 -1 1 -14 5 19 81 1 2 -2 0 -23 9 -2 1 0 -2 -20 -81 -13 5 -2 1 0 -2 -4 -15 0 -2 1 0 54 -21 2 0 0 0 1 -1 21 -8 1 0 1 1 14 26 1 -32 0 -1 1 -1 21 -8 3 -1 0 3 -3 70 8 34 0 2 -1 0 -23 9 -2 1 -1 -2 -8 -34zm-123 -25l23 -8 2 -1 1 2 23 98 0 1 -1 1 -23 9 -2 0 -1 -2 -23 -97 0 -2 1 -1zm152 -173l-21 8 4 18 21 -8 2 -1 1 2 3 15 1 2 -2 0 -22 9 7 27 21 -8 2 0 1 2 3 15 1 1 -2 1 -46 17 -2 1 -1 -2 -23 -98 0 -1 1 -1 47 -18 1 0 1 2 3 15 1 1 -2 1zm-171 45l23 -9 1 0 1 1 20 55 -7 -60 0 -1 1 -1 23 -9 2 -1 0 3 6 104 0 2 -1 0 -6 2 -17 7 -6 2 -2 1 0 -2 -39 -92 -1 -1 2 -1zm73 -28l24 -9 2 -1 0 2 23 98 1 2 -2 0 -23 9 -2 1 0 -2 -24 -98 0 -2 1 0zm-114 40c1,0 3,-1 4,-1 7,-2 14,-1 20,2 6,3 11,8 13,15 1,1 1,2 2,3l10 46c2,8 1,17 -4,25 -4,8 -11,14 -19,17 -2,1 -3,1 -4,1 -8,2 -15,1 -21,-2 -6,-3 -10,-8 -13,-14 0,-1 -1,-3 -1,-4l-11 -45c-2,-9 0,-18 4,-25 5,-8 11,-14 20,-18zm6 21c0,0 0,0 -1,1l0 0c-1,0 -2,1 -2,2 -1,1 -1,3 -1,4l13 55c0,1 0,1 0,1 1,1 1,1 2,2 1,0 2,0 3,0 0,0 0,0 0,0l0 0c2,-1 3,-2 3,-3 1,-1 1,-2 1,-3l-13 -56c0,0 0,0 -1,0 0,-1 0,-2 -1,-2 -1,-1 -2,-1 -3,-1z"/>
   </g>
  </g>
 </g>
</svg>
